<svg width="155" height="40" viewBox="0 0 155 40" fill="none" xmlns="http://www.w3.org/2000/svg">
<path d="M71.5 13V27H68.84L61.86 18.5V27H58.66V13H61.34L68.3 21.5V13H71.5ZM78.4523 15.6V19.3H84.9323V21.9H78.4523V27H75.2123V13H85.7923V15.6H78.4523ZM91.3834 15.64H86.9034V13H99.1034V15.64H94.6234V27H91.3834V15.64ZM101.543 27.16C100.996 27.16 100.536 26.9733 100.163 26.6C99.7893 26.2267 99.6027 25.76 99.6027 25.2C99.6027 24.6267 99.7893 24.1667 100.163 23.82C100.536 23.46 100.996 23.28 101.543 23.28C102.089 23.28 102.549 23.46 102.923 23.82C103.296 24.1667 103.483 24.6267 103.483 25.2C103.483 25.76 103.296 26.2267 102.923 26.6C102.549 26.9733 102.089 27.16 101.543 27.16ZM115.137 27L112.437 23.1H112.277H109.457V27H106.217V13H112.277C113.517 13 114.59 13.2067 115.497 13.62C116.417 14.0333 117.124 14.62 117.617 15.38C118.11 16.14 118.357 17.04 118.357 18.08C118.357 19.12 118.104 20.02 117.597 20.78C117.104 21.5267 116.397 22.1 115.477 22.5L118.617 27H115.137ZM115.077 18.08C115.077 17.2933 114.824 16.6933 114.317 16.28C113.81 15.8533 113.07 15.64 112.097 15.64H109.457V20.52H112.097C113.07 20.52 113.81 20.3067 114.317 19.88C114.824 19.4533 115.077 18.8533 115.077 18.08ZM121.104 16.24H124.224V27H121.104V16.24ZM122.664 14.74C122.091 14.74 121.624 14.5733 121.264 14.24C120.904 13.9067 120.724 13.4933 120.724 13C120.724 12.5067 120.904 12.0933 121.264 11.76C121.624 11.4267 122.091 11.26 122.664 11.26C123.237 11.26 123.704 11.42 124.064 11.74C124.424 12.06 124.604 12.46 124.604 12.94C124.604 13.46 124.424 13.8933 124.064 14.24C123.704 14.5733 123.237 14.74 122.664 14.74ZM134.06 16.08C135.393 16.08 136.466 16.48 137.28 17.28C138.106 18.08 138.52 19.2667 138.52 20.84V27H135.4V21.32C135.4 20.4667 135.213 19.8333 134.84 19.42C134.466 18.9933 133.926 18.78 133.22 18.78C132.433 18.78 131.806 19.0267 131.34 19.52C130.873 20 130.64 20.72 130.64 21.68V27H127.52V16.24H130.5V17.5C130.913 17.0467 131.426 16.7 132.04 16.46C132.653 16.2067 133.326 16.08 134.06 16.08ZM152.965 16.24V25.2C152.965 27.1733 152.452 28.64 151.425 29.6C150.398 30.56 148.898 31.04 146.925 31.04C145.885 31.04 144.898 30.9133 143.965 30.66C143.032 30.4067 142.258 30.04 141.645 29.56L142.885 27.32C143.338 27.6933 143.912 27.9867 144.605 28.2C145.298 28.4267 145.992 28.54 146.685 28.54C147.765 28.54 148.558 28.2933 149.065 27.8C149.585 27.32 149.845 26.5867 149.845 25.6V25.14C149.032 26.0333 147.898 26.48 146.445 26.48C145.458 26.48 144.552 26.2667 143.725 25.84C142.912 25.4 142.265 24.7867 141.785 24C141.305 23.2133 141.065 22.3067 141.065 21.28C141.065 20.2533 141.305 19.3467 141.785 18.56C142.265 17.7733 142.912 17.1667 143.725 16.74C144.552 16.3 145.458 16.08 146.445 16.08C148.005 16.08 149.192 16.5933 150.005 17.62V16.24H152.965ZM147.065 23.92C147.892 23.92 148.565 23.68 149.085 23.2C149.618 22.7067 149.885 22.0667 149.885 21.28C149.885 20.4933 149.618 19.86 149.085 19.38C148.565 18.8867 147.892 18.64 147.065 18.64C146.238 18.64 145.558 18.8867 145.025 19.38C144.492 19.86 144.225 20.4933 144.225 21.28C144.225 22.0667 144.492 22.7067 145.025 23.2C145.558 23.68 146.238 23.92 147.065 23.92Z" fill="white"/>
<circle cx="20" cy="20" r="20" fill="url(#paint0_linear_9414_2)"/>
<circle cx="20" cy="20" r="20" fill="black" fill-opacity="0.2"/>
<defs>
<linearGradient id="paint0_linear_9414_2" x1="3.00654" y1="3.12746e-08" x2="36.4706" y2="40" gradientUnits="userSpaceOnUse">
<stop stop-color="#9CD2EE"/>
<stop offset="1" stop-color="#00ACEE"/>
</linearGradient>
</defs>
</svg>
